name Walk8.mot
datacolumns 19
datarows 10
range 3.93300000 3.94200000
endheader

                time	   L_ground_force_vx	   L_ground_force_vy	   L_ground_force_vz	   L_ground_force_px	   L_ground_force_py	   L_ground_force_pz	   R_ground_force_vx	   R_ground_force_vy	   R_ground_force_vz	   R_ground_force_px	   R_ground_force_py	   R_ground_force_pz	   L_ground_torque_x	   L_ground_torque_y	   L_ground_torque_z	   R_ground_torque_x	   R_ground_torque_y	   R_ground_torque_z	
          3.93300000	         17.46274585	        970.52625826	         68.90249773	         -0.35430060	          0.00000000	         -0.06541749	         -0.02340915	          0.28582232	          0.01716810	          0.00004283	          0.00000000	          0.00014341	          0.00000000	          0.48585385	          0.00000000	          0.00000000	          0.00054596	          0.00000000	
          3.93400000	         17.79983478	        970.60385925	         69.09351850	         -0.35389065	          0.00000000	         -0.06546506	         -0.02539612	          0.30266731	          0.01776434	          0.00004497	          0.00000000	          0.00014928	          0.00000000	          0.49955136	          0.00000000	          0.00000000	          0.00076184	          0.00000000	
          3.93500000	         18.14030510	        970.67426711	         69.28144799	         -0.35348154	          0.00000000	         -0.06551255	         -0.02746285	          0.31982763	          0.01834262	          0.00004712	          0.00000000	          0.00015508	          0.00000000	          0.51275494	          0.00000000	          0.00000000	          0.00099464	          0.00000000	
          3.93600000	         18.48420605	        970.73830810	         69.46614921	         -0.35307339	          0.00000000	         -0.06555992	         -0.02960821	          0.33726172	          0.01889888	          0.00004928	          0.00000000	          0.00016078	          0.00000000	          0.52544398	          0.00000000	          0.00000000	          0.00124496	          0.00000000	
          3.93700000	         18.83159152	        970.79678697	         69.64749660	         -0.35266633	          0.00000000	         -0.06560710	         -0.03183064	          0.35492300	          0.01942878	          0.00005143	          0.00000000	          0.00016635	          0.00000000	          0.53759837	          0.00000000	          0.00000000	          0.00151340	          0.00000000	
          3.93800000	         19.18252152	        970.85048513	         69.82537548	         -0.35226046	          0.00000000	         -0.06565404	         -0.03412814	          0.37275966	          0.01992769	          0.00005357	          0.00000000	          0.00017174	          0.00000000	          0.54919890	          0.00000000	          0.00000000	          0.00180053	          0.00000000	
          3.93900000	         19.53706298	        970.90015950	         69.99968140	         -0.35185590	          0.00000000	         -0.06570068	         -0.03649819	          0.39071434	          0.02039065	          0.00005568	          0.00000000	          0.00017693	          0.00000000	          0.56022780	          0.00000000	          0.00000000	          0.00210691	          0.00000000	
          3.94000000	         19.89528969	        970.94654163	         70.17031969	         -0.35145275	          0.00000000	         -0.06574698	         -0.03893775	          0.40872383	          0.02081242	          0.00005777	          0.00000000	          0.00018187	          0.00000000	          0.57066946	          0.00000000	          0.00000000	          0.00243306	          0.00000000	
          3.94100000	         20.25728174	        970.99033681	         70.33720525	         -0.35105112	          0.00000000	         -0.06579287	         -0.04144318	          0.42671887	          0.02118744	          0.00005980	          0.00000000	          0.00018652	          0.00000000	          0.58051106	          0.00000000	          0.00000000	          0.00277947	          0.00000000	
          3.94200000	         20.62312442	        971.03222317	         70.50026255	         -0.35065109	          0.00000000	         -0.06583831	         -0.04401028	          0.44462378	          0.02150980	          0.00006179	          0.00000000	          0.00019083	          0.00000000	          0.58974283	          0.00000000	          0.00000000	          0.00314659	          0.00000000	
